<svg width="220" height="220" viewBox="0 0 100 100" fill="none" xmlns="http://www.w3.org/2000/svg">
  <path d="M30 12 C10 38, 10 62, 30 88" stroke="#C8C5BE" stroke-width="2.5" stroke-linecap="round" fill="none"/>
  <path d="M50 12 C36 38, 36 62, 50 88" stroke="#C8C5BE" stroke-width="2.5" stroke-linecap="round" fill="none"/>
  <path d="M70 12 C84 38, 84 62, 70 88" stroke="#C8C5BE" stroke-width="2.5" stroke-linecap="round" fill="none"/>
  <path d="M12 32 C38 18, 62 18, 88 32" stroke="#C8C5BE" stroke-width="2.5" stroke-linecap="round" fill="none"/>
  <path d="M12 50 C38 40, 62 40, 88 50" stroke="#C8C5BE" stroke-width="2.5" stroke-linecap="round" fill="none"/>
  <path d="M12 68 C38 78, 62 78, 88 68" stroke="#C8C5BE" stroke-width="2.5" stroke-linecap="round" fill="none"/>
  <path d="M14 80 Q50 44, 86 14" stroke="#0D9488" stroke-width="6.5" stroke-linecap="round" fill="none"/>
  <path d="M50 36 C40 44, 39 50, 42 56" stroke="#C8C5BE" stroke-width="3.5" stroke-linecap="round" fill="none"/>
  <path d="M38 50 C46 44, 54 43, 62 48" stroke="#C8C5BE" stroke-width="3.5" stroke-linecap="round" fill="none"/>
</svg>
